<svg version="1.1" id="Layer_1" xmlns="http://www.w3.org/2000/svg" xmlns:xlink="http://www.w3.org/1999/xlink" x="0px" y="0px"
	 width="100%" viewBox="0 0 500 500" enable-background="new 0 0 500 500" xml:space="preserve">
<path fill="#000000" opacity="1.000000" stroke="none" 
	d="
M299.000000,501.000000 
	C199.333359,501.000000 100.166718,501.000000 1.000053,501.000000 
	C1.000036,334.333405 1.000036,167.666794 1.000018,1.000143 
	C167.666565,1.000095 334.333130,1.000095 500.999756,1.000048 
	C500.999847,167.666519 500.999847,334.333038 500.999939,500.999786 
	C433.833344,501.000000 366.666656,501.000000 299.000000,501.000000 
M186.740997,76.034035 
	C180.112762,78.891510 173.256897,81.319031 166.898071,84.685417 
	C146.108276,95.691658 126.538269,108.503128 111.600967,127.065140 
	C103.289558,137.393402 94.873878,147.845688 88.183449,159.228485 
	C72.859001,185.300781 64.821007,213.817993 64.147392,244.101425 
	C63.899448,255.248215 65.107231,266.451050 66.043541,277.595337 
	C67.698143,297.289001 74.400169,315.604401 82.814957,333.214996 
	C92.379036,353.230927 105.514938,370.851349 121.656281,386.116241 
	C132.777344,396.633484 145.144913,405.497955 158.455002,413.076447 
	C184.977295,428.177551 213.627670,435.910736 243.974106,436.826599 
	C256.443634,437.202942 269.102661,436.571106 281.443420,434.789917 
	C303.580994,431.594635 324.428619,423.926208 343.919250,412.926392 
	C351.285919,408.768890 358.165405,403.748169 365.332001,399.078522 
	C355.283173,389.010864 345.868378,379.578430 336.619537,370.312256 
	C325.223145,379.021332 312.503540,385.528870 299.005280,389.700714 
	C287.202271,393.348602 274.706360,394.834534 262.455048,396.913208 
	C257.461456,397.760468 252.295181,398.014374 247.226913,397.867401 
	C242.878067,397.741302 238.577942,396.372040 234.219666,396.053009 
	C220.081161,395.018158 206.558029,391.608826 193.533981,386.099060 
	C169.206146,375.807251 148.928604,360.178802 132.850769,339.275970 
	C113.382919,313.965729 104.292809,284.885498 103.137550,253.262695 
	C102.870888,245.963242 104.325928,238.600189 104.997864,231.267273 
	C106.396172,216.007385 110.864899,201.565231 117.640457,187.950211 
	C127.514771,168.108475 140.847153,151.041809 158.301453,136.993179 
	C184.595535,115.829567 214.617905,105.650223 247.965576,105.184113 
	C259.357605,105.024887 270.883636,106.350502 282.163269,108.155106 
	C299.007935,110.850060 314.531555,117.559158 328.998840,126.540932 
	C343.359772,135.456680 355.883301,146.397125 366.424011,159.770096 
	C378.548004,175.151749 387.772949,191.889389 392.996033,210.772720 
	C395.092133,218.350861 395.802002,219.000000 403.821136,219.000000 
	C412.986053,219.000015 422.150970,219.013321 431.315796,218.983963 
	C432.532043,218.980072 433.747528,218.759171 434.987366,218.636383 
	C412.940582,97.065384 289.946289,39.588791 186.740997,76.034035 
M231.851334,357.967712 
	C243.346451,357.978851 254.879013,358.583771 266.327881,357.861633 
	C283.435577,356.782623 298.378387,349.263855 312.757874,340.214050 
	C333.342194,360.812927 354.250763,381.145569 374.379608,402.222870 
	C380.798309,408.944000 387.206940,411.665466 396.373566,411.195374 
	C410.736481,410.458801 425.164917,411.000000 440.320740,411.000000 
	C406.768768,377.450134 373.846100,344.529510 340.983521,311.668945 
	C370.315521,265.583130 363.037262,211.282562 329.224213,176.003265 
	C297.236603,142.628555 249.652130,133.758224 207.346603,152.041275 
	C163.670303,170.916733 136.539185,216.805008 144.060532,268.022736 
	C150.236572,310.079193 184.555771,348.937744 231.851334,357.967712 
z"/>
<path fill="#F7F7F7" opacity="1.000000" stroke="none" 
	d="
M187.146255,76.016678 
	C289.946289,39.588791 412.940582,97.065384 434.987366,218.636383 
	C433.747528,218.759171 432.532043,218.980072 431.315796,218.983963 
	C422.150970,219.013321 412.986053,219.000015 403.821136,219.000000 
	C395.802002,219.000000 395.092133,218.350861 392.996033,210.772720 
	C387.772949,191.889389 378.548004,175.151749 366.424011,159.770096 
	C355.883301,146.397125 343.359772,135.456680 328.998840,126.540932 
	C314.531555,117.559158 299.007935,110.850060 282.163269,108.155106 
	C270.883636,106.350502 259.357605,105.024887 247.965576,105.184113 
	C214.617905,105.650223 184.595535,115.829567 158.301453,136.993179 
	C140.847153,151.041809 127.514771,168.108475 117.640457,187.950211 
	C110.864899,201.565231 106.396172,216.007385 104.997864,231.267273 
	C104.325928,238.600189 102.870888,245.963242 103.137550,253.262695 
	C104.292809,284.885498 113.382919,313.965729 132.850769,339.275970 
	C148.928604,360.178802 169.206146,375.807251 193.533981,386.099060 
	C206.558029,391.608826 220.081161,395.018158 234.219666,396.053009 
	C238.577942,396.372040 242.878067,397.741302 247.226913,397.867401 
	C252.295181,398.014374 257.461456,397.760468 262.455048,396.913208 
	C274.706360,394.834534 287.202271,393.348602 299.005280,389.700714 
	C312.503540,385.528870 325.223145,379.021332 336.619537,370.312256 
	C345.868378,379.578430 355.283173,389.010864 365.332001,399.078522 
	C358.165405,403.748169 351.285919,408.768890 343.919250,412.926392 
	C324.428619,423.926208 303.580994,431.594635 281.443420,434.789917 
	C269.102661,436.571106 256.443634,437.202942 243.974106,436.826599 
	C213.627670,435.910736 184.977295,428.177551 158.455002,413.076447 
	C145.144913,405.497955 132.777344,396.633484 121.656281,386.116241 
	C105.514938,370.851349 92.379036,353.230927 82.814957,333.214996 
	C74.400169,315.604401 67.698143,297.289001 66.043541,277.595337 
	C65.107231,266.451050 63.899448,255.248215 64.147392,244.101425 
	C64.821007,213.817993 72.859001,185.300781 88.183449,159.228485 
	C94.873878,147.845688 103.289558,137.393402 111.600967,127.065140 
	C126.538269,108.503128 146.108276,95.691658 166.898071,84.685417 
	C173.256897,81.319031 180.112762,78.891510 187.146255,76.016678 
M104.963181,285.193176 
	C104.253067,282.127899 103.542961,279.062653 102.965118,275.124542 
	C102.254501,269.080811 101.543884,263.037048 100.964760,256.071167 
	C101.255379,249.379181 101.545998,242.687195 101.970917,235.151932 
	C102.314041,233.062149 102.530304,230.941986 103.022079,228.887787 
	C105.249870,219.582077 107.555450,210.294998 109.990105,200.251968 
	C113.367432,192.846680 116.744759,185.441391 120.726860,177.699188 
	C124.855110,171.480927 128.983353,165.262650 133.727753,158.762115 
	C137.853302,153.858597 141.978836,148.955078 146.719055,143.771774 
	C152.184280,139.195297 157.649521,134.618835 163.743011,129.758713 
	C174.507751,123.879028 185.272491,117.999344 196.822968,112.018280 
	C200.077499,111.009911 203.297897,109.869598 206.592834,109.017494 
	C217.197449,106.275009 227.794617,103.551430 238.916809,103.898247 
	C251.038193,104.276222 263.183319,104.119438 275.285553,104.786270 
	C281.229340,105.113770 287.099609,106.775620 293.680542,108.179680 
	C304.752136,112.802986 315.823730,117.426285 327.232117,122.662064 
	C327.939117,123.059509 328.683105,123.403458 329.347321,123.862785 
	C335.201721,127.911148 341.041992,131.980026 347.173035,136.657669 
	C351.764832,140.806717 356.356598,144.955750 361.009064,149.798157 
	C363.967712,153.212997 366.926392,156.627838 370.179626,160.674454 
	C373.101685,164.816559 376.023712,168.958664 379.237793,173.738586 
	C382.214081,179.158829 385.190338,184.579071 388.047729,190.738876 
	C390.415314,197.273956 392.598694,203.884949 395.244293,210.305496 
	C396.254761,212.757736 398.221527,216.595444 399.927002,216.691116 
	C410.479553,217.283096 421.081787,216.988678 433.020935,216.988678 
	C430.230804,207.449844 427.672668,198.704147 425.017914,189.188309 
	C422.622833,183.459320 420.227753,177.730331 417.745728,171.301834 
	C415.515228,167.167603 413.284729,163.033371 410.765564,158.264694 
	C408.213287,154.494171 405.661041,150.723648 403.001556,146.244476 
	C400.040741,142.483948 397.079926,138.723434 394.004364,134.268173 
	C389.687592,129.478455 385.370789,124.688751 380.773041,119.282715 
	C374.866821,114.487854 368.960602,109.692993 362.764221,104.274536 
	C361.573425,103.420868 360.400269,102.541252 359.189117,101.717522 
	C346.603516,93.157875 333.544189,85.428993 319.228088,80.116623 
	C304.044983,74.482544 288.565186,70.388397 272.286835,68.692383 
	C259.075653,67.315933 246.003799,67.120781 232.856049,68.074623 
	C227.317169,68.476456 221.771042,69.278931 216.325806,70.381332 
	C196.556259,74.383705 177.516205,80.607498 160.172546,91.067680 
	C151.134369,96.518730 142.670990,102.922836 133.322800,109.183411 
	C126.508598,115.776154 119.694389,122.368896 112.272255,129.235672 
	C108.830666,133.455917 105.389076,137.676178 101.335213,142.232986 
	C98.416222,146.869568 95.497238,151.506149 92.098717,156.708374 
	C88.454445,163.806046 84.810165,170.903717 80.823921,178.676132 
	C78.271255,185.785294 75.718590,192.894470 73.003685,200.785904 
	C71.056969,212.189041 69.110252,223.592163 67.023773,235.879196 
	C66.738098,242.917221 66.452423,249.955231 66.028351,257.841431 
	C66.352692,261.867645 66.605034,265.901550 67.031403,269.916931 
	C67.248360,271.960114 67.778351,273.970062 68.028221,276.846680 
	C68.407547,279.897064 68.786880,282.947449 69.047295,286.668488 
	C69.753487,288.777832 70.459679,290.887177 71.033989,293.786957 
	C72.077805,297.189697 73.121620,300.592407 74.055061,304.758179 
	C75.758835,309.503601 77.462616,314.248993 79.269745,319.699432 
	C80.580490,322.574432 81.891235,325.449432 83.172989,329.098358 
	C84.741493,332.078033 86.310005,335.057739 88.182976,338.667847 
	C89.750793,341.125763 91.318604,343.583679 92.999771,346.738678 
	C94.292801,348.837402 95.585831,350.936157 97.180916,353.660950 
	C99.747055,357.119537 102.313202,360.578125 105.182587,364.650543 
	C109.750443,369.780823 114.318298,374.911102 119.008514,380.736053 
	C122.636497,383.840179 126.264488,386.944336 130.192581,390.661591 
	C140.112671,397.477173 150.032745,404.292786 160.316071,411.704163 
	C160.905640,411.993958 161.506912,412.262329 162.083130,412.576630 
	C189.126617,427.328003 218.179199,434.643646 248.854904,434.824615 
	C260.817230,434.895172 272.900055,433.691650 284.735626,431.839203 
	C305.093048,428.652893 324.214355,421.526367 342.761505,410.995667 
	C349.107666,406.995789 355.453827,402.995941 361.528778,399.167023 
	C352.901947,390.547668 344.470245,382.123260 336.855896,374.515503 
	C324.890778,380.191833 313.141632,386.968262 300.560516,391.362854 
	C290.042297,395.036804 278.500763,395.696136 267.502899,398.103821 
	C254.038010,401.051575 240.528305,399.742065 227.327271,397.651398 
	C215.337250,395.752594 203.732132,391.423279 191.331070,387.821899 
	C185.843491,385.100006 180.355896,382.378113 174.331146,379.147705 
	C166.904266,373.729828 159.477386,368.311951 151.759262,362.286804 
	C147.874405,358.841431 143.989548,355.396027 139.998138,351.266998 
	C138.038101,349.165863 136.078064,347.064728 133.999878,344.267609 
	C131.684448,341.476807 129.369019,338.685974 126.984833,335.197296 
	C125.364845,332.786591 123.744865,330.375885 122.000954,327.253510 
	C120.278702,324.168121 118.556450,321.082733 116.725906,317.301086 
	C114.522957,312.520538 112.320007,307.739960 109.990417,302.198547 
	C108.938629,298.798401 107.886841,295.398254 106.721054,291.286926 
	C106.091934,289.524597 105.462814,287.762268 104.963181,285.193176 
z"/>
<path fill="#F7F7F7" opacity="1.000000" stroke="none" 
	d="
M231.452667,357.768372 
	C184.555771,348.937744 150.236572,310.079193 144.060532,268.022736 
	C136.539185,216.805008 163.670303,170.916733 207.346603,152.041275 
	C249.652130,133.758224 297.236603,142.628555 329.224213,176.003265 
	C363.037262,211.282562 370.315521,265.583130 340.983521,311.668945 
	C373.846100,344.529510 406.768768,377.450134 440.320740,411.000000 
	C425.164917,411.000000 410.736481,410.458801 396.373566,411.195374 
	C387.206940,411.665466 380.798309,408.944000 374.379608,402.222870 
	C354.250763,381.145569 333.342194,360.812927 312.757874,340.214050 
	C298.378387,349.263855 283.435577,356.782623 266.327881,357.861633 
	C254.879013,358.583771 243.346451,357.978851 231.452667,357.768372 
M356.019775,239.106079 
	C355.958160,237.403229 355.896545,235.700363 355.685486,233.229660 
	C353.475128,226.119247 351.264771,219.008820 349.007721,211.143707 
	C345.023041,204.062225 341.038361,196.980743 336.990814,189.196594 
	C335.916504,187.598907 335.045044,185.805801 333.729523,184.440536 
	C329.931396,180.498703 325.954376,176.729248 321.772888,172.281616 
	C315.527618,167.814316 309.282349,163.347000 302.691650,158.268906 
	C282.437378,147.803345 261.189789,142.850266 238.276443,145.934769 
	C223.716537,147.894775 209.989624,151.998932 196.754044,159.873230 
	C191.152573,164.213409 185.551102,168.553589 179.252625,172.998093 
	C174.797699,177.983749 170.342773,182.969391 165.284851,188.286850 
	C160.815994,196.845856 156.347137,205.404861 151.241272,214.360764 
	C149.549667,221.239639 147.858047,228.118530 146.028030,235.840027 
	C145.740967,238.892700 145.453903,241.945358 145.027695,245.910324 
	C145.073959,249.605713 145.120239,253.301102 145.026840,257.847076 
	C145.739838,261.896515 146.452850,265.945923 147.028152,270.804779 
	C147.740463,273.869507 148.452789,276.934204 149.051270,280.743195 
	C149.996475,283.175964 150.941666,285.608734 151.998489,288.761688 
	C152.721115,290.506531 153.443756,292.251373 154.257736,294.690491 
	C156.154984,297.828583 158.052231,300.966675 160.009003,304.787323 
	C160.987335,306.225281 161.965668,307.663239 163.010254,309.793610 
	C164.635529,311.876831 166.260803,313.960083 168.171143,316.653961 
	C169.744720,318.452087 171.318283,320.250244 173.159195,322.628723 
	C174.399567,323.765167 175.639938,324.901611 177.163513,326.632904 
	C178.757126,328.122070 180.350739,329.611237 182.233994,331.711945 
	C185.454727,334.158997 188.675461,336.606079 192.255035,339.657562 
	C196.558487,341.913116 200.861954,344.168701 205.762482,346.883728 
	C219.022797,353.330139 232.986450,356.967926 247.764694,356.946045 
	C253.838455,356.937073 259.938843,356.590973 265.978546,355.944702 
	C276.598694,354.808319 286.729248,351.860229 296.759949,346.624329 
	C301.544495,343.763947 306.329041,340.903564 311.819092,338.010284 
	C313.530365,339.042572 315.241669,340.074829 317.230042,341.704742 
	C319.780914,344.148926 322.331787,346.593079 325.173615,349.639984 
	C327.408691,351.772217 329.643738,353.904449 332.174774,356.642944 
	C336.413757,360.778198 340.652710,364.913452 345.184906,369.653870 
	C349.416809,373.781769 353.648712,377.909668 358.176544,382.643524 
	C362.748535,387.111725 367.320496,391.579926 372.185760,396.653259 
	C379.355743,407.102325 389.152557,411.159943 401.667267,409.067047 
	C404.423065,408.606201 407.321777,408.999817 410.154663,408.999847 
	C418.219177,408.999878 426.283661,408.999878 434.139069,408.999878 
	C429.335144,403.847961 424.719635,398.898102 419.810974,393.344086 
	C415.578644,389.215302 411.346313,385.086548 406.818634,380.352417 
	C402.583252,376.220734 398.347870,372.089050 393.817413,367.352081 
	C389.579498,363.217651 385.341614,359.083252 380.812775,354.346130 
	C378.242828,351.880646 375.672913,349.415131 372.810913,346.345673 
	C369.892761,343.531250 366.974640,340.716858 363.774200,337.303864 
	C361.199249,334.833862 358.624329,332.363892 355.720734,329.316498 
	C354.184784,327.863525 352.648804,326.410522 350.857422,324.394135 
	C349.942352,323.582062 349.027252,322.770020 347.820435,321.351837 
	C345.897736,319.867828 343.975037,318.383850 341.987091,316.229309 
	C340.935181,314.819641 339.883301,313.410004 338.983948,311.295227 
	C340.267029,308.862183 341.550140,306.429138 343.154816,303.356415 
	C344.473358,300.586121 345.791901,297.815857 347.718567,294.682953 
	C348.519684,292.467255 349.320831,290.251526 350.737183,287.649139 
	C351.199493,285.777588 351.661804,283.906036 352.761993,281.607819 
	C353.452576,278.070343 354.143158,274.532898 355.001007,270.182495 
	C355.611664,265.453857 356.222321,260.725220 356.965973,255.096512 
	C356.922180,252.064316 356.878387,249.032135 356.970306,245.198837 
	C356.684479,243.450470 356.398682,241.702118 356.019775,239.106079 
z"/>
<path fill="#5E3ACD" opacity="1.000000" stroke="none" 
	d="
M293.003143,107.833603 
	C287.099609,106.775620 281.229340,105.113770 275.285553,104.786270 
	C263.183319,104.119438 251.038193,104.276222 238.916809,103.898247 
	C227.794617,103.551430 217.197449,106.275009 206.592834,109.017494 
	C203.297897,109.869598 200.077499,111.009911 196.354782,111.689972 
	C193.657120,110.574654 191.443314,109.188057 189.194824,109.129349 
	C184.926422,109.017891 180.634674,109.985367 176.358871,109.938278 
	C165.046249,109.813690 153.737061,109.383606 142.426315,109.082047 
	C139.600571,109.006706 136.774109,108.957619 133.947983,108.896469 
	C142.670990,102.922836 151.134369,96.518730 160.172546,91.067680 
	C177.516205,80.607498 196.556259,74.383705 216.325806,70.381332 
	C221.771042,69.278931 227.317169,68.476456 232.856049,68.074623 
	C246.003799,67.120781 259.075653,67.315933 272.286835,68.692383 
	C288.565186,70.388397 304.044983,74.482544 319.228088,80.116623 
	C333.544189,85.428993 346.603516,93.157875 359.189117,101.717522 
	C360.400269,102.541252 361.573425,103.420868 362.647491,104.880867 
	C358.493713,105.658760 354.456299,105.821350 350.419739,106.003860 
	C343.329132,106.324448 336.238281,106.934868 329.149048,106.913643 
	C320.539429,106.887856 311.931854,106.128029 303.322449,106.109283 
	C299.883942,106.101791 296.442993,107.225067 293.003143,107.833603 
z"/>
<path fill="#4F80D4" opacity="1.000000" stroke="none" 
	d="
M191.957336,388.165436 
	C203.732132,391.423279 215.337250,395.752594 227.327271,397.651398 
	C240.528305,399.742065 254.038010,401.051575 267.502899,398.103821 
	C278.500763,395.696136 290.042297,395.036804 300.560516,391.362854 
	C313.141632,386.968262 324.890778,380.191833 336.855896,374.515503 
	C344.470245,382.123260 352.901947,390.547668 361.528778,399.167023 
	C355.453827,402.995941 349.107666,406.995789 342.155151,410.756348 
	C337.183044,410.338074 332.818420,410.123993 328.451355,409.987213 
	C317.354095,409.639709 306.256897,409.137787 295.157410,409.069580 
	C288.299347,409.027496 281.439423,409.870422 274.576141,409.948425 
	C265.999207,410.045959 257.418213,409.721893 248.838440,409.665649 
	C243.923203,409.633423 239.004822,409.890869 234.091461,409.806549 
	C225.204407,409.654053 216.320053,409.158203 207.434555,409.157593 
	C200.408966,409.157104 193.382874,409.922150 186.357864,409.908508 
	C179.497467,409.895172 172.639282,409.154694 165.777664,409.109741 
	C163.840485,409.097015 161.894669,410.405731 159.952820,411.108398 
	C150.032745,404.292786 140.112671,397.477173 130.432953,390.185638 
	C141.750977,389.407379 152.828232,389.088593 163.906418,388.807800 
	C173.256149,388.570831 182.606995,388.377869 191.957336,388.165436 
z"/>
<path fill="#4C84D5" opacity="1.000000" stroke="none" 
	d="
M160.134445,411.406250 
	C161.894669,410.405731 163.840485,409.097015 165.777664,409.109741 
	C172.639282,409.154694 179.497467,409.895172 186.357864,409.908508 
	C193.382874,409.922150 200.408966,409.157104 207.434555,409.157593 
	C216.320053,409.158203 225.204407,409.654053 234.091461,409.806549 
	C239.004822,409.890869 243.923203,409.633423 248.838440,409.665649 
	C257.418213,409.721893 265.999207,410.045959 274.576141,409.948425 
	C281.439423,409.870422 288.299347,409.027496 295.157410,409.069580 
	C306.256897,409.137787 317.354095,409.639709 328.451355,409.987213 
	C332.818420,410.123993 337.183044,410.338074 341.799561,410.811157 
	C324.214355,421.526367 305.093048,428.652893 284.735626,431.839203 
	C272.900055,433.691650 260.817230,434.895172 248.854904,434.824615 
	C218.179199,434.643646 189.126617,427.328003 162.083130,412.576630 
	C161.506912,412.262329 160.905640,411.993958 160.134445,411.406250 
z"/>
<path fill="#4B47D0" opacity="1.000000" stroke="none" 
	d="
M109.833023,201.001205 
	C107.555450,210.294998 105.249870,219.582077 103.022079,228.887787 
	C102.530304,230.941986 102.314041,233.062149 101.480392,235.574829 
	C89.714424,235.663589 78.438980,235.329437 67.163536,234.995300 
	C69.110252,223.592163 71.056969,212.189041 73.487473,200.458649 
	C75.926445,200.420944 77.879623,200.944016 79.837135,200.960754 
	C89.835152,201.046158 99.834282,201.000809 109.833023,201.001205 
z"/>
<path fill="#5B3DCD" opacity="1.000000" stroke="none" 
	d="
M133.635391,109.039940 
	C136.774109,108.957619 139.600571,109.006706 142.426315,109.082047 
	C153.737061,109.383606 165.046249,109.813690 176.358871,109.938278 
	C180.634674,109.985367 184.926422,109.017891 189.194824,109.129349 
	C191.443314,109.188057 193.657120,110.574654 195.961914,111.740669 
	C185.272491,117.999344 174.507751,123.879028 162.966583,129.888153 
	C159.053894,129.818710 155.919495,129.493698 152.781021,129.448181 
	C146.899612,129.362869 141.015015,129.505722 135.133286,129.431931 
	C127.714783,129.338882 120.297806,129.123962 112.880173,128.961639 
	C119.694389,122.368896 126.508598,115.776154 133.635391,109.039940 
z"/>
<path fill="#5C3CCD" opacity="1.000000" stroke="none" 
	d="
M293.341858,108.006638 
	C296.442993,107.225067 299.883942,106.101791 303.322449,106.109283 
	C311.931854,106.128029 320.539429,106.887856 329.149048,106.913643 
	C336.238281,106.934868 343.329132,106.324448 350.419739,106.003860 
	C354.456299,105.821350 358.493713,105.658760 362.792572,105.192665 
	C368.960602,109.692993 374.866821,114.487854 380.627930,119.895462 
	C376.230865,120.975914 371.976288,121.858902 367.727448,121.832001 
	C355.879944,121.756996 344.035645,121.256340 332.187866,121.054276 
	C330.429871,121.024284 328.659790,121.700226 326.895325,122.049576 
	C315.823730,117.426285 304.752136,112.802986 293.341858,108.006638 
z"/>
<path fill="#4D45CF" opacity="1.000000" stroke="none" 
	d="
M425.114532,189.958450 
	C427.672668,198.704147 430.230804,207.449844 433.020935,216.988678 
	C421.081787,216.988678 410.479553,217.283096 399.927002,216.691116 
	C398.221527,216.595444 396.254761,212.757736 395.244293,210.305496 
	C392.598694,203.884949 390.415314,197.273956 388.564728,190.369370 
	C401.092651,189.986069 413.103607,189.972260 425.114532,189.958450 
z"/>
<path fill="#5044CF" opacity="1.000000" stroke="none" 
	d="
M109.911560,200.626587 
	C99.834282,201.000809 89.835152,201.046158 79.837135,200.960754 
	C77.879623,200.944016 75.926445,200.420944 73.568588,200.067520 
	C75.718590,192.894470 78.271255,185.785294 81.452332,178.338318 
	C94.761185,178.012360 107.441643,178.024231 120.122086,178.036102 
	C116.744759,185.441391 113.367432,192.846680 109.911560,200.626587 
z"/>
<path fill="#527BD4" opacity="1.000000" stroke="none" 
	d="
M152.050507,362.894104 
	C159.477386,368.311951 166.904266,373.729828 174.066498,379.488251 
	C155.496597,379.899658 137.191376,379.970520 118.886147,380.041382 
	C114.318298,374.911102 109.750443,369.780823 105.464119,364.332947 
	C119.472450,364.010254 133.199509,364.043549 146.925720,363.951263 
	C148.636276,363.939758 150.342346,363.262756 152.050507,362.894104 
z"/>
<path fill="#5342CF" opacity="1.000000" stroke="none" 
	d="
M120.424477,177.867645 
	C107.441643,178.024231 94.761185,178.012360 81.623306,178.000946 
	C84.810165,170.903717 88.454445,163.806046 92.557724,156.819595 
	C96.336784,157.013733 99.657959,157.065811 102.976662,157.186142 
	C109.383835,157.418411 115.793861,157.613586 122.194328,157.973206 
	C125.841965,158.178162 129.473053,158.677567 133.111603,159.044373 
	C128.983353,165.262650 124.855110,171.480927 120.424477,177.867645 
z"/>
<path fill="#4A4ED0" opacity="1.000000" stroke="none" 
	d="
M67.093658,235.437256 
	C78.438980,235.329437 89.714424,235.663589 101.413239,235.996475 
	C101.545998,242.687195 101.255379,249.379181 100.441780,256.534302 
	C88.668121,256.996063 77.417435,256.994659 66.166756,256.993256 
	C66.452423,249.955231 66.738098,242.917221 67.093658,235.437256 
z"/>
<path fill="#5A3ECE" opacity="1.000000" stroke="none" 
	d="
M327.063721,122.355820 
	C328.659790,121.700226 330.429871,121.024284 332.187866,121.054276 
	C344.035645,121.256340 355.879944,121.756996 367.727448,121.832001 
	C371.976288,121.858902 376.230865,120.975914 380.768402,120.203621 
	C385.370789,124.688751 389.687592,129.478455 393.592926,134.626419 
	C388.277252,135.017914 383.371094,134.975098 378.469208,135.100067 
	C367.940430,135.368454 357.413879,135.723343 346.886414,136.042816 
	C341.041992,131.980026 335.201721,127.911148 329.347321,123.862785 
	C328.683105,123.403458 327.939117,123.059509 327.063721,122.355820 
z"/>
<path fill="#5143CF" opacity="1.000000" stroke="none" 
	d="
M425.066223,189.573380 
	C413.103607,189.972260 401.092651,189.986069 388.624176,189.999588 
	C385.190338,184.579071 382.214081,179.158829 379.383545,173.111954 
	C392.297058,172.323990 405.064880,172.162674 417.832672,172.001343 
	C420.227753,177.730331 422.622833,183.459320 425.066223,189.573380 
z"/>
<path fill="#4D57D1" opacity="1.000000" stroke="none" 
	d="
M66.097549,257.417358 
	C77.417435,256.994659 88.668121,256.996063 100.376030,256.995392 
	C101.543884,263.037048 102.254501,269.080811 102.441589,275.561768 
	C90.667656,275.997650 79.417252,275.996338 68.166840,275.995056 
	C67.778351,273.970062 67.248360,271.960114 67.031403,269.916931 
	C66.605034,265.901550 66.352692,261.867645 66.097549,257.417358 
z"/>
<path fill="#583FCE" opacity="1.000000" stroke="none" 
	d="
M112.576218,129.098663 
	C120.297806,129.123962 127.714783,129.338882 135.133286,129.431931 
	C141.015015,129.505722 146.899612,129.362869 152.781021,129.448181 
	C155.919495,129.493698 159.053894,129.818710 162.652435,130.029968 
	C157.649521,134.618835 152.184280,139.195297 146.061737,143.758850 
	C143.326813,143.819412 141.246384,144.002090 139.172104,143.948044 
	C128.306519,143.665070 117.441078,143.360336 106.579529,142.957016 
	C105.024536,142.899277 103.490967,142.264267 101.947487,141.896423 
	C105.389076,137.676178 108.830666,133.455917 112.576218,129.098663 
z"/>
<path fill="#5540CE" opacity="1.000000" stroke="none" 
	d="
M101.641350,142.064697 
	C103.490967,142.264267 105.024536,142.899277 106.579529,142.957016 
	C117.441078,143.360336 128.306519,143.665070 139.172104,143.948044 
	C141.246384,144.002090 143.326813,143.819412 145.754395,143.898743 
	C141.978836,148.955078 137.853302,153.858597 133.419678,158.903244 
	C129.473053,158.677567 125.841965,158.178162 122.194328,157.973206 
	C115.793861,157.613586 109.383835,157.418411 102.976662,157.186142 
	C99.657959,157.065811 96.336784,157.013733 92.797485,156.536774 
	C95.497238,151.506149 98.416222,146.869568 101.641350,142.064697 
z"/>
<path fill="#583FCE" opacity="1.000000" stroke="none" 
	d="
M347.029724,136.350250 
	C357.413879,135.723343 367.940430,135.368454 378.469208,135.100067 
	C383.371094,134.975098 388.277252,135.017914 393.650299,134.973785 
	C397.079926,138.723434 400.040741,142.483948 402.726685,146.736801 
	C393.602753,147.166092 384.745941,146.857025 375.907654,147.135788 
	C370.905518,147.293549 365.933807,148.416534 360.948395,149.104797 
	C356.356598,144.955750 351.764832,140.806717 347.029724,136.350250 
z"/>
<path fill="#5167D2" opacity="1.000000" stroke="none" 
	d="
M79.166397,318.994415 
	C77.462616,314.248993 75.758835,309.503601 74.565308,304.378235 
	C86.756050,303.652008 98.436554,303.305695 110.117058,302.959412 
	C112.320007,307.739960 114.522957,312.520538 116.330811,317.650055 
	C103.679276,318.330841 91.422836,318.662628 79.166397,318.994415 
z"/>
<path fill="#507DD4" opacity="1.000000" stroke="none" 
	d="
M118.947327,380.388702 
	C137.191376,379.970520 155.496597,379.899658 174.335083,379.742493 
	C180.355896,382.378113 185.843491,385.100006 191.644196,387.993652 
	C182.606995,388.377869 173.256149,388.570831 163.906418,388.807800 
	C152.828232,389.088593 141.750977,389.407379 130.282898,389.879089 
	C126.264488,386.944336 122.636497,383.840179 118.947327,380.388702 
z"/>
<path fill="#5540CE" opacity="1.000000" stroke="none" 
	d="
M360.978729,149.451477 
	C365.933807,148.416534 370.905518,147.293549 375.907654,147.135788 
	C384.745941,146.857025 393.602753,147.166092 402.780273,147.091125 
	C405.661041,150.723648 408.213287,154.494171 410.641937,158.878387 
	C404.852783,159.333557 399.183533,158.965683 393.522675,159.067047 
	C385.640167,159.208206 377.763947,159.700607 369.885040,160.042664 
	C366.926392,156.627838 363.967712,153.212997 360.978729,149.451477 
z"/>
<path fill="#5342CF" opacity="1.000000" stroke="none" 
	d="
M370.032349,160.358551 
	C377.763947,159.700607 385.640167,159.208206 393.522675,159.067047 
	C399.183533,158.965683 404.852783,159.333557 410.786255,159.195618 
	C413.284729,163.033371 415.515228,167.167603 417.789185,171.651581 
	C405.064880,172.162674 392.297058,172.323990 379.237488,172.793060 
	C376.023712,168.958664 373.101685,164.816559 370.032349,160.358551 
z"/>
<path fill="#5378D3" opacity="1.000000" stroke="none" 
	d="
M151.904877,362.590454 
	C150.342346,363.262756 148.636276,363.939758 146.925720,363.951263 
	C133.199509,364.043549 119.472450,364.010254 105.312500,364.026062 
	C102.313202,360.578125 99.747055,357.119537 97.507263,353.337402 
	C105.435326,353.135681 113.042091,353.481537 120.637245,353.310974 
	C127.133301,353.165039 133.616058,352.426849 140.104706,351.950623 
	C143.989548,355.396027 147.874405,358.841431 151.904877,362.590454 
z"/>
<path fill="#5062D2" opacity="1.000000" stroke="none" 
	d="
M110.053741,302.578979 
	C98.436554,303.305695 86.756050,303.652008 74.620483,303.996704 
	C73.121620,300.592407 72.077805,297.189697 71.549240,293.392883 
	C83.654678,292.665222 95.244865,292.331665 106.835052,291.998108 
	C107.886841,295.398254 108.938629,298.798401 110.053741,302.578979 
z"/>
<path fill="#536DD2" opacity="1.000000" stroke="none" 
	d="
M79.218071,319.346924 
	C91.422836,318.662628 103.679276,318.330841 116.384949,317.998169 
	C118.556450,321.082733 120.278702,324.168121 121.633041,327.629211 
	C117.361473,328.306274 113.457031,328.867798 109.554306,328.856079 
	C100.769737,328.829681 91.986031,328.519257 83.201973,328.324432 
	C81.891235,325.449432 80.580490,322.574432 79.218071,319.346924 
z"/>
<path fill="#5473D3" opacity="1.000000" stroke="none" 
	d="
M127.053589,335.895172 
	C129.369019,338.685974 131.684448,341.476807 133.635712,344.676331 
	C131.162155,345.390045 129.054932,345.940399 126.943008,345.959076 
	C115.591454,346.059540 104.238739,346.027710 92.886414,346.041565 
	C91.318604,343.583679 89.750793,341.125763 88.447731,338.293457 
	C92.791794,337.917053 96.871124,337.920868 100.950417,337.911865 
	C108.367668,337.895538 115.787415,337.964386 123.199768,337.763336 
	C124.500305,337.728058 125.769768,336.547058 127.053589,335.895172 
z"/>
<path fill="#5470D3" opacity="1.000000" stroke="none" 
	d="
M127.019211,335.546234 
	C125.769768,336.547058 124.500305,337.728058 123.199768,337.763336 
	C115.787415,337.964386 108.367668,337.895538 100.950417,337.911865 
	C96.871124,337.920868 92.791794,337.917053 88.295502,337.978210 
	C86.310005,335.057739 84.741493,332.078033 83.187485,328.711395 
	C91.986031,328.519257 100.769737,328.829681 109.554306,328.856079 
	C113.457031,328.867798 117.361473,328.306274 121.695007,327.985046 
	C123.744865,330.375885 125.364845,332.786591 127.019211,335.546234 
z"/>
<path fill="#4E5DD1" opacity="1.000000" stroke="none" 
	d="
M68.097534,276.420868 
	C79.417252,275.996338 90.667656,275.997650 102.375458,275.998169 
	C103.542961,279.062653 104.253067,282.127899 104.441017,285.596588 
	C92.334641,285.999298 80.750420,285.998566 69.166206,285.997833 
	C68.786880,282.947449 68.407547,279.897064 68.097534,276.420868 
z"/>
<path fill="#5475D3" opacity="1.000000" stroke="none" 
	d="
M92.943100,346.390137 
	C104.238739,346.027710 115.591454,346.059540 126.943008,345.959076 
	C129.054932,345.940399 131.162155,345.390045 133.694794,345.024292 
	C136.078064,347.064728 138.038101,349.165863 140.051422,351.608826 
	C133.616058,352.426849 127.133301,353.165039 120.637245,353.310974 
	C113.042091,353.481537 105.435326,353.135681 97.356232,353.024353 
	C95.585831,350.936157 94.292801,348.837402 92.943100,346.390137 
z"/>
<path fill="#4F5FD2" opacity="1.000000" stroke="none" 
	d="
M69.106750,286.333160 
	C80.750420,285.998566 92.334641,285.999298 104.376266,285.999969 
	C105.462814,287.762268 106.091934,289.524597 106.778061,291.642517 
	C95.244865,292.331665 83.654678,292.665222 71.615173,292.997650 
	C70.459679,290.887177 69.753487,288.777832 69.106750,286.333160 
z"/>
<path fill="#5143CF" opacity="1.000000" stroke="none" 
	d="
M165.887848,187.955048 
	C170.342773,182.969391 174.797699,177.983749 179.891235,173.255127 
	C192.760574,173.923767 204.988998,174.542358 217.222809,174.678391 
	C226.243484,174.778702 235.272064,174.023590 244.295517,174.059128 
	C254.725815,174.100204 265.152710,174.707306 275.584076,174.854187 
	C287.079437,175.016037 298.582031,175.110718 310.073425,174.862640 
	C314.077118,174.776215 318.056915,173.580963 322.047607,172.892120 
	C325.954376,176.729248 329.931396,180.498703 333.729523,184.440536 
	C335.045044,185.805801 335.916504,187.598907 336.738708,189.851532 
	C328.717133,190.688705 320.940094,190.717056 313.180206,191.096207 
	C305.334534,191.479523 297.505859,192.210281 289.389404,192.670410 
	C265.227234,177.435577 240.844269,177.388153 215.774200,189.820572 
	C209.030426,189.083008 202.550827,188.330353 196.066452,188.286575 
	C186.940552,188.224915 177.811615,188.718933 168.682312,188.882507 
	C167.756668,188.899109 166.819611,188.279449 165.887848,187.955048 
z"/>
<path fill="#5342CF" opacity="1.000000" stroke="none" 
	d="
M321.910248,172.586868 
	C318.056915,173.580963 314.077118,174.776215 310.073425,174.862640 
	C298.582031,175.110718 287.079437,175.016037 275.584076,174.854187 
	C265.152710,174.707306 254.725815,174.100204 244.295517,174.059128 
	C235.272064,174.023590 226.243484,174.778702 217.222809,174.678391 
	C204.988998,174.542358 192.760574,173.923767 180.239731,173.202972 
	C185.551102,168.553589 191.152573,164.213409 197.479446,159.958069 
	C199.642151,160.360962 201.078979,160.954285 202.516800,160.956665 
	C234.756744,161.009888 266.996857,161.022278 299.236481,160.909210 
	C300.505676,160.904755 301.770325,159.586044 303.037079,158.879700 
	C309.282349,163.347000 315.527618,167.814316 321.910248,172.586868 
z"/>
<path fill="#5470D3" opacity="1.000000" stroke="none" 
	d="
M356.049377,329.893890 
	C358.624329,332.363892 361.199249,334.833862 363.638733,337.902344 
	C355.670776,338.941864 347.842285,339.610687 340.004395,339.750153 
	C333.972778,339.857483 327.929230,339.139679 321.891113,339.141510 
	C320.244843,339.142029 318.598999,340.417053 316.952942,341.107117 
	C315.241669,340.074829 313.530365,339.042572 310.989746,338.013672 
	C275.955994,337.731293 241.751877,337.360504 207.546921,337.250122 
	C202.332001,337.233276 197.113190,338.422058 191.896179,339.053162 
	C188.675461,336.606079 185.454727,334.158997 182.381378,331.098450 
	C184.328522,330.323273 186.127884,330.026611 187.928085,330.021454 
	C201.644394,329.982269 215.362106,329.881836 229.076981,330.027069 
	C250.906296,330.258209 272.732758,330.778473 294.562225,330.963287 
	C313.845306,331.126495 333.130890,331.018372 352.415131,330.951660 
	C353.627747,330.947479 354.838013,330.262268 356.049377,329.893890 
z"/>
<path fill="#5540CE" opacity="1.000000" stroke="none" 
	d="
M302.864380,158.574310 
	C301.770325,159.586044 300.505676,160.904755 299.236481,160.909210 
	C266.996857,161.022278 234.756744,161.009888 202.516800,160.956665 
	C201.078979,160.954285 199.642151,160.360962 197.784241,159.812988 
	C209.989624,151.998932 223.716537,147.894775 238.276443,145.934769 
	C261.189789,142.850266 282.437378,147.803345 302.864380,158.574310 
z"/>
<path fill="#4D45CF" opacity="1.000000" stroke="none" 
	d="
M165.586349,188.120941 
	C166.819611,188.279449 167.756668,188.899109 168.682312,188.882507 
	C177.811615,188.718933 186.940552,188.224915 196.066452,188.286575 
	C202.550827,188.330353 209.030426,189.083008 215.608948,190.120575 
	C211.711334,193.740601 207.369171,196.401718 203.807129,199.865158 
	C198.934189,204.603241 194.654282,209.951218 189.717957,214.982666 
	C187.874619,214.621246 186.435562,214.060715 184.992096,214.049118 
	C173.954620,213.960495 162.916321,213.978790 151.878265,213.963837 
	C156.347137,205.404861 160.815994,196.845856 165.586349,188.120941 
z"/>
<path fill="#4D45CF" opacity="1.000000" stroke="none" 
	d="
M289.669739,192.788849 
	C297.505859,192.210281 305.334534,191.479523 313.180206,191.096207 
	C320.940094,190.717056 328.717133,190.688705 336.770142,190.202866 
	C341.038361,196.980743 345.023041,204.062225 348.739624,211.828857 
	C341.108429,212.698837 333.742645,212.812347 326.383179,213.092819 
	C321.210297,213.289948 316.046082,213.714340 310.568726,213.894592 
	C303.396210,206.764252 296.532959,199.776550 289.669739,192.788849 
z"/>
<path fill="#536DD2" opacity="1.000000" stroke="none" 
	d="
M355.885071,329.605194 
	C354.838013,330.262268 353.627747,330.947479 352.415131,330.951660 
	C333.130890,331.018372 313.845306,331.126495 294.562225,330.963287 
	C272.732758,330.778473 250.906296,330.258209 229.076981,330.027069 
	C215.362106,329.881836 201.644394,329.982269 187.928085,330.021454 
	C186.127884,330.026611 184.328522,330.323273 182.236557,330.792664 
	C180.350739,329.611237 178.757126,328.122070 177.404266,326.287292 
	C186.430618,325.627777 195.215225,325.112366 204.002167,325.069122 
	C210.108536,325.039032 216.219620,325.947510 222.325897,325.916077 
	C230.511871,325.873962 238.692947,325.146362 246.880295,325.042297 
	C259.517212,324.881653 272.157684,324.990021 284.796570,325.011139 
	C286.617920,325.014191 288.438232,325.213043 290.260284,325.242523 
	C298.103516,325.369263 305.947418,325.563263 313.790710,325.547974 
	C321.830902,325.532288 329.870667,325.299438 337.910645,325.165436 
	C342.311310,325.092072 346.712128,325.026581 351.112854,324.957550 
	C352.648804,326.410522 354.184784,327.863525 355.885071,329.605194 
z"/>
<path fill="#4A48D0" opacity="1.000000" stroke="none" 
	d="
M310.877991,214.037247 
	C316.046082,213.714340 321.210297,213.289948 326.383179,213.092819 
	C333.742645,212.812347 341.108429,212.698837 348.763000,212.206192 
	C351.264771,219.008820 353.475128,226.119247 355.327820,233.614349 
	C343.035187,233.998749 331.100220,233.998459 319.086975,233.619507 
	C316.298523,226.839645 313.588257,220.438446 310.877991,214.037247 
z"/>
<path fill="#5475D3" opacity="1.000000" stroke="none" 
	d="
M296.139496,346.677979 
	C286.729248,351.860229 276.598694,354.808319 265.978546,355.944702 
	C259.938843,356.590973 253.838455,356.937073 247.764694,356.946045 
	C232.986450,356.967926 219.022797,353.330139 205.915878,346.458862 
	C207.828568,345.689545 209.587006,345.050385 211.347305,345.045197 
	C234.168152,344.977783 256.990082,344.895569 279.809692,345.076935 
	C285.256836,345.120239 290.696442,346.118805 296.139496,346.677979 
z"/>
<path fill="#5473D3" opacity="1.000000" stroke="none" 
	d="
M296.449707,346.651154 
	C290.696442,346.118805 285.256836,345.120239 279.809692,345.076935 
	C256.990082,344.895569 234.168152,344.977783 211.347305,345.045197 
	C209.587006,345.050385 207.828568,345.689545 205.617340,346.229126 
	C200.861954,344.168701 196.558487,341.913116 192.075607,339.355377 
	C197.113190,338.422058 202.332001,337.233276 207.546921,337.250122 
	C241.751877,337.360504 275.955994,337.731293 310.636993,338.030090 
	C306.329041,340.903564 301.544495,343.763947 296.449707,346.651154 
z"/>
<path fill="#4A48D0" opacity="1.000000" stroke="none" 
	d="
M151.559769,214.162292 
	C162.916321,213.978790 173.954620,213.960495 184.992096,214.049118 
	C186.435562,214.060715 187.874619,214.621246 189.658890,215.348801 
	C187.375336,222.192398 184.748627,228.614716 181.666443,235.026154 
	C169.529449,235.009323 157.847946,235.003357 146.166428,234.997406 
	C147.858047,228.118530 149.549667,221.239639 151.559769,214.162292 
z"/>
<path fill="#4F80D4" opacity="1.000000" stroke="none" 
	d="
M420.104126,393.948242 
	C424.719635,398.898102 429.335144,403.847961 434.139069,408.999878 
	C426.283661,408.999878 418.219177,408.999878 410.154663,408.999847 
	C407.321777,408.999817 404.423065,408.606201 401.667267,409.067047 
	C389.152557,411.159943 379.355743,407.102325 372.430298,396.181030 
	C374.464447,395.472534 376.252502,395.046906 378.043945,395.032135 
	C386.694214,394.960785 395.347900,395.124084 403.995453,394.954468 
	C409.369507,394.849091 414.734863,394.298828 420.104126,393.948242 
z"/>
<path fill="#507DD4" opacity="1.000000" stroke="none" 
	d="
M419.957550,393.646179 
	C414.734863,394.298828 409.369507,394.849091 403.995453,394.954468 
	C395.347900,395.124084 386.694214,394.960785 378.043945,395.032135 
	C376.252502,395.046906 374.464447,395.472534 372.283630,395.878448 
	C367.320496,391.579926 362.748535,387.111725 358.451935,382.279510 
	C360.992920,381.610321 363.256836,381.056335 365.524414,381.040710 
	C379.387146,380.945221 393.250702,380.971863 407.113983,380.957794 
	C411.346313,385.086548 415.578644,389.215302 419.957550,393.646179 
z"/>
<path fill="#5062D2" opacity="1.000000" stroke="none" 
	d="
M347.110474,295.045563 
	C345.791901,297.815857 344.473358,300.586121 342.551392,303.677490 
	C336.344727,303.667908 330.738342,303.017578 325.138855,303.072113 
	C312.974976,303.190521 300.814941,303.681335 288.652588,303.990814 
	C285.730072,304.065155 282.804657,304.025635 279.582642,303.900757 
	C276.844116,301.215210 274.403564,298.667358 272.214294,295.819702 
	C282.755676,295.104858 293.043213,294.594360 303.336975,294.311310 
	C309.334991,294.146393 315.344238,294.282562 321.346313,294.396057 
	C329.935364,294.558441 338.522522,294.824036 347.110474,295.045563 
z"/>
<path fill="#527BD4" opacity="1.000000" stroke="none" 
	d="
M406.966309,380.655090 
	C393.250702,380.971863 379.387146,380.945221 365.524414,381.040710 
	C363.256836,381.056335 360.992920,381.610321 358.303986,381.976532 
	C353.648712,377.909668 349.416809,373.781769 345.404816,369.192322 
	C346.245605,368.513000 346.865601,368.107788 347.487457,368.105011 
	C360.462433,368.046906 373.437622,368.036652 386.412750,368.010986 
	C388.979370,368.005890 391.545898,367.975891 394.112488,367.957397 
	C398.347870,372.089050 402.583252,376.220734 406.966309,380.655090 
z"/>
<path fill="#536CD2" opacity="1.000000" stroke="none" 
	d="
M350.985138,324.675842 
	C346.712128,325.026581 342.311310,325.092072 337.910645,325.165436 
	C329.870667,325.299438 321.830902,325.532288 313.790710,325.547974 
	C305.947418,325.563263 298.103516,325.369263 290.260284,325.242523 
	C288.438232,325.213043 286.617920,325.014191 284.796570,325.011139 
	C272.157684,324.990021 259.517212,324.881653 246.880295,325.042297 
	C238.692947,325.146362 230.511871,325.873962 222.325897,325.916077 
	C216.219620,325.947510 210.108536,325.039032 204.002167,325.069122 
	C195.215225,325.112366 186.430618,325.627777 177.262665,325.989868 
	C175.639938,324.901611 174.399567,323.765167 173.374329,322.187683 
	C184.824585,321.520966 196.059662,321.293640 207.294968,321.078217 
	C207.618942,321.071991 207.946838,321.252228 208.270370,321.244141 
	C216.957870,321.026764 225.645187,320.801453 234.331375,320.539459 
	C234.572647,320.532166 234.801300,320.107483 235.467773,319.926147 
	C244.562820,320.302307 253.225891,320.629730 262.247040,321.110474 
	C265.163605,321.838470 267.727753,322.927643 270.279602,322.899567 
	C281.948792,322.771057 293.612915,322.230438 305.282196,322.048126 
	C310.040375,321.973785 314.806519,322.595245 319.569733,322.606659 
	C325.350647,322.620483 331.131989,322.310974 336.913788,322.166748 
	C340.645996,322.073608 344.379333,322.025970 348.112183,321.957947 
	C349.027252,322.770020 349.942352,323.582062 350.985138,324.675842 
z"/>
<path fill="#5378D3" opacity="1.000000" stroke="none" 
	d="
M393.964966,367.654724 
	C391.545898,367.975891 388.979370,368.005890 386.412750,368.010986 
	C373.437622,368.036652 360.462433,368.046906 347.487457,368.105011 
	C346.865601,368.107788 346.245605,368.513000 345.258209,368.889771 
	C340.652710,364.913452 336.413757,360.778198 332.491089,356.328857 
	C338.388611,355.978119 343.969849,355.921326 349.551117,355.910309 
	C355.300964,355.898956 361.054535,356.064301 366.799622,355.904968 
	C371.572815,355.772583 376.336060,355.281189 381.103699,354.948822 
	C385.341614,359.083252 389.579498,363.217651 393.964966,367.654724 
z"/>
<path fill="#4F5FD2" opacity="1.000000" stroke="none" 
	d="
M347.414520,294.864258 
	C338.522522,294.824036 329.935364,294.558441 321.346313,294.396057 
	C315.344238,294.282562 309.334991,294.146393 303.336975,294.311310 
	C293.043213,294.594360 282.755676,295.104858 271.910828,295.674011 
	C268.864532,293.231262 266.372986,290.634430 264.273987,287.872742 
	C265.130432,287.526184 265.593719,287.187042 266.058167,287.185425 
	C283.468903,287.124908 300.880676,286.974243 318.290253,287.106781 
	C328.902557,287.187592 339.511505,287.711151 350.121948,288.035828 
	C349.320831,290.251526 348.519684,292.467255 347.414520,294.864258 
z"/>
<path fill="#4E5DD1" opacity="1.000000" stroke="none" 
	d="
M350.429565,287.842468 
	C339.511505,287.711151 328.902557,287.187592 318.290253,287.106781 
	C300.880676,286.974243 283.468903,287.124908 266.058167,287.185425 
	C265.593719,287.187042 265.130432,287.526184 263.977417,287.738525 
	C261.485474,285.858643 259.682648,283.948212 258.327637,282.026672 
	C264.011688,281.709930 269.244507,281.242706 274.484833,281.132660 
	C284.952087,280.912842 295.423584,280.898346 305.892578,280.746887 
	C306.281952,280.741272 306.663391,280.189758 307.359863,280.041290 
	C309.803101,282.975220 312.119537,284.040863 315.296936,281.022064 
	C317.822937,281.386749 319.940216,281.989044 322.040222,281.933960 
	C325.816620,281.834930 329.586884,281.031952 333.352142,281.082764 
	C339.612610,281.167267 345.867096,281.693970 352.124115,282.034485 
	C351.661804,283.906036 351.199493,285.777588 350.429565,287.842468 
z"/>
<path fill="#4C55D1" opacity="1.000000" stroke="none" 
	d="
M356.832947,255.996582 
	C356.222321,260.725220 355.611664,265.453857 354.460510,270.590454 
	C342.002197,270.997681 330.084381,270.996979 318.243347,270.614624 
	C319.269043,265.487366 320.218048,260.741791 321.555847,256.007629 
	C325.186737,256.012726 328.428802,256.002228 331.670898,256.000854 
	C340.058258,255.997299 348.445587,255.997757 356.832947,255.996582 
z"/>
<path fill="#4C55D1" opacity="1.000000" stroke="none" 
	d="
M147.165863,269.995361 
	C146.452850,265.945923 145.739838,261.896515 145.514221,257.420746 
	C149.454086,256.662964 152.902634,256.105560 156.359833,256.045258 
	C164.515594,255.902954 172.675461,255.997406 180.903351,256.425476 
	C181.593140,261.236053 182.213242,265.617249 182.378052,269.998993 
	C170.337128,269.998138 158.751495,269.996765 147.165863,269.995361 
z"/>
<path fill="#5166D2" opacity="1.000000" stroke="none" 
	d="
M279.880554,304.038452 
	C282.804657,304.025635 285.730072,304.065155 288.652588,303.990814 
	C300.814941,303.681335 312.974976,303.190521 325.138855,303.072113 
	C330.738342,303.017578 336.344727,303.667908 342.390594,303.997345 
	C341.550140,306.429138 340.267029,308.862183 338.461578,311.647614 
	C320.253632,311.987976 302.568054,311.975952 284.928925,311.602295 
	C283.277100,308.839935 281.578827,306.439178 279.880554,304.038452 
z"/>
<path fill="#526AD2" opacity="1.000000" stroke="none" 
	d="
M347.966309,321.654907 
	C344.379333,322.025970 340.645996,322.073608 336.913788,322.166748 
	C331.131989,322.310974 325.350647,322.620483 319.569733,322.606659 
	C314.806519,322.595245 310.040375,321.973785 305.282196,322.048126 
	C293.612915,322.230438 281.948792,322.771057 270.279602,322.899567 
	C267.727753,322.927643 265.163605,321.838470 262.464111,320.786865 
	C268.961761,320.087341 274.858917,317.292847 281.265198,315.118073 
	C287.146149,315.519196 292.648895,315.912140 298.155060,315.968262 
	C308.944519,316.078247 319.736359,315.954285 330.526062,316.052307 
	C332.073822,316.066376 333.601288,317.017456 335.162933,317.108246 
	C337.447632,317.241089 339.754761,316.988281 342.052307,316.899872 
	C343.975037,318.383850 345.897736,319.867828 347.966309,321.654907 
z"/>
<path fill="#4A4FD1" opacity="1.000000" stroke="none" 
	d="
M180.833679,255.996124 
	C172.675461,255.997406 164.515594,255.902954 156.359833,256.045258 
	C152.902634,256.105560 149.454086,256.662964 145.584076,256.995453 
	C145.120239,253.301102 145.073959,249.605713 145.520447,245.454529 
	C157.619781,244.664993 169.226334,244.331284 180.902496,244.453857 
	C180.925964,248.605484 180.879822,252.300812 180.833679,255.996124 
z"/>
<path fill="#5062D2" opacity="1.000000" stroke="none" 
	d="
M159.949478,304.104767 
	C158.052231,300.966675 156.154984,297.828583 154.669449,294.344604 
	C168.427658,293.987244 181.774170,293.975830 195.425537,294.106079 
	C198.166595,297.126099 200.602783,300.004425 202.757355,303.191498 
	C190.833588,303.666840 179.191452,303.833679 167.549301,303.999817 
	C165.016037,304.035980 162.482758,304.069855 159.949478,304.104767 
z"/>
<path fill="#5475D3" opacity="1.000000" stroke="none" 
	d="
M380.958252,354.647461 
	C376.336060,355.281189 371.572815,355.772583 366.799622,355.904968 
	C361.054535,356.064301 355.300964,355.898956 349.551117,355.910309 
	C343.969849,355.921326 338.388611,355.978119 332.343079,356.025757 
	C329.643738,353.904449 327.408691,351.772217 325.428650,349.284180 
	C328.917847,348.285614 332.155121,347.084259 335.385712,347.101868 
	C346.360687,347.161774 357.332336,347.699219 368.307922,347.926178 
	C369.898865,347.959076 371.504272,347.292511 373.102966,346.949646 
	C375.672913,349.415131 378.242828,351.880646 380.958252,354.647461 
z"/>
<path fill="#5473D3" opacity="1.000000" stroke="none" 
	d="
M372.956940,346.647644 
	C371.504272,347.292511 369.898865,347.959076 368.307922,347.926178 
	C357.332336,347.699219 346.360687,347.161774 335.385712,347.101868 
	C332.155121,347.084259 328.917847,348.285614 325.283142,348.982788 
	C322.331787,346.593079 319.780914,344.148926 317.091492,341.405945 
	C318.598999,340.417053 320.244843,339.142029 321.891113,339.141510 
	C327.929230,339.139679 333.972778,339.857483 340.004395,339.750153 
	C347.842285,339.610687 355.670776,338.941864 363.779907,338.201660 
	C366.974640,340.716858 369.892761,343.531250 372.956940,346.647644 
z"/>
<path fill="#4E5BD1" opacity="1.000000" stroke="none" 
	d="
M318.166595,270.996277 
	C330.084381,270.996979 342.002197,270.997681 354.376862,270.996887 
	C354.143158,274.532898 353.452576,278.070343 352.443054,281.821136 
	C345.867096,281.693970 339.612610,281.167267 333.352142,281.082764 
	C329.586884,281.031952 325.816620,281.834930 322.040222,281.933960 
	C319.940216,281.989044 317.822937,281.386749 315.359131,280.645508 
	C316.058777,277.138977 317.112701,274.067627 318.166595,270.996277 
z"/>
<path fill="#4A4FD1" opacity="1.000000" stroke="none" 
	d="
M356.899475,255.546555 
	C348.445587,255.997757 340.058258,255.997299 331.670898,256.000854 
	C328.428802,256.002228 325.186737,256.012726 321.489105,255.557739 
	C321.077423,252.064072 321.121277,249.031693 321.623413,245.999588 
	C333.666016,245.999878 345.250336,245.999908 356.834595,245.999939 
	C356.878387,249.032135 356.922180,252.064316 356.899475,255.546555 
z"/>
<path fill="#5167D2" opacity="1.000000" stroke="none" 
	d="
M167.886078,316.043304 
	C166.260803,313.960083 164.635529,311.876831 163.269165,309.139648 
	C172.886246,308.559113 182.245224,308.737427 191.602341,308.667603 
	C197.441254,308.624023 203.277390,308.206055 209.465958,307.985840 
	C213.209991,310.065918 216.602829,312.116272 219.723328,314.403259 
	C214.765839,315.093262 210.085663,315.865082 205.394592,315.938385 
	C192.894272,316.133972 180.389236,316.028870 167.886078,316.043304 
z"/>
<path fill="#526AD2" opacity="1.000000" stroke="none" 
	d="
M168.028610,316.348633 
	C180.389236,316.028870 192.894272,316.133972 205.394592,315.938385 
	C210.085663,315.865082 214.765839,315.093262 220.076172,314.454773 
	C225.479523,316.138885 230.257675,318.008118 235.035828,319.877380 
	C234.801300,320.107483 234.572647,320.532166 234.331375,320.539459 
	C225.645187,320.801453 216.957870,321.026764 208.270370,321.244141 
	C207.946838,321.252228 207.618942,321.071991 207.294968,321.078217 
	C196.059662,321.293640 184.824585,321.520966 173.240662,321.897491 
	C171.318283,320.250244 169.744720,318.452087 168.028610,316.348633 
z"/>
<path fill="#4E5DD1" opacity="1.000000" stroke="none" 
	d="
M151.886871,288.041504 
	C150.941666,285.608734 149.996475,283.175964 149.524323,280.369324 
	C153.757706,279.666840 157.513367,279.142181 161.279373,279.052734 
	C167.926910,278.894806 174.583786,279.107300 181.229523,278.914917 
	C182.658585,278.873505 184.056915,277.770844 185.684998,277.465851 
	C187.307312,280.838470 188.714020,283.902252 189.698761,287.025208 
	C187.167709,287.389557 185.061066,287.937622 182.949097,287.958893 
	C172.595795,288.063416 162.241089,288.027679 151.886871,288.041504 
z"/>
<path fill="#494CD0" opacity="1.000000" stroke="none" 
	d="
M180.832901,243.997559 
	C169.226334,244.331284 157.619781,244.664993 145.590027,244.998383 
	C145.453903,241.945358 145.740967,238.892700 146.097229,235.418716 
	C157.847946,235.003357 169.529449,235.009323 181.616913,235.442352 
	C181.626221,238.578812 181.229568,241.288193 180.832901,243.997559 
z"/>
<path fill="#4E5BD1" opacity="1.000000" stroke="none" 
	d="
M185.469406,277.157013 
	C184.056915,277.770844 182.658585,278.873505 181.229523,278.914917 
	C174.583786,279.107300 167.926910,278.894806 161.279373,279.052734 
	C157.513367,279.142181 153.757706,279.666840 149.581238,279.997192 
	C148.452789,276.934204 147.740463,273.869507 147.097015,270.400085 
	C158.751495,269.996765 170.337128,269.998138 182.544235,270.325134 
	C183.933609,272.819458 184.701508,274.988251 185.469406,277.157013 
z"/>
<path fill="#494CD0" opacity="1.000000" stroke="none" 
	d="
M319.165222,233.998169 
	C331.100220,233.998459 343.035187,233.998749 355.402527,233.998276 
	C355.896545,235.700363 355.958160,237.403229 355.710388,239.682770 
	C343.655884,240.838943 331.910767,241.418442 320.098297,241.584137 
	C319.742371,238.779617 319.453796,236.388885 319.165222,233.998169 
z"/>
<path fill="#5167D2" opacity="1.000000" stroke="none" 
	d="
M342.019714,316.564575 
	C339.754761,316.988281 337.447632,317.241089 335.162933,317.108246 
	C333.601288,317.017456 332.073822,316.066376 330.526062,316.052307 
	C319.736359,315.954285 308.944519,316.078247 298.155060,315.968262 
	C292.648895,315.912140 287.146149,315.519196 281.418182,314.833984 
	C282.423828,313.580933 283.653168,312.772430 284.882477,311.963928 
	C302.568054,311.975952 320.253632,311.987976 338.385315,312.000183 
	C339.883301,313.410004 340.935181,314.819641 342.019714,316.564575 
z"/>
<path fill="#4F5FD2" opacity="1.000000" stroke="none" 
	d="
M151.942688,288.401611 
	C162.241089,288.027679 172.595795,288.063416 182.949097,287.958893 
	C185.061066,287.937622 187.167709,287.389557 189.991516,287.187805 
	C192.177689,289.515656 193.649185,291.740021 195.120667,293.964386 
	C181.774170,293.975830 168.427658,293.987244 154.623779,293.997437 
	C153.443756,292.251373 152.721115,290.506531 151.942688,288.401611 
z"/>
<path fill="#5166D2" opacity="1.000000" stroke="none" 
	d="
M209.114761,307.956085 
	C203.277390,308.206055 197.441254,308.624023 191.602341,308.667603 
	C182.245224,308.737427 172.886246,308.559113 163.236023,308.793427 
	C161.965668,307.663239 160.987335,306.225281 159.979248,304.446045 
	C162.482758,304.069855 165.016037,304.035980 167.549301,303.999817 
	C179.191452,303.833679 190.833588,303.666840 203.061981,303.336548 
	C205.470398,304.767242 207.292587,306.361664 209.114761,307.956085 
z"/>
<path fill="#4A4ED0" opacity="1.000000" stroke="none" 
	d="
M320.165680,241.997925 
	C331.910767,241.418442 343.655884,240.838943 355.756927,240.106598 
	C356.398682,241.702118 356.684479,243.450470 356.902466,245.599396 
	C345.250336,245.999908 333.666016,245.999878 321.555054,245.652740 
	C320.740814,244.203079 320.453247,243.100494 320.165680,241.997925 
z"/>
<path fill="#F7F7F7" opacity="1.000000" stroke="none" 
	d="
M320.098297,241.584137 
	C320.453247,243.100494 320.740814,244.203079 321.096741,245.652496 
	C321.121277,249.031693 321.077423,252.064072 321.100281,255.546326 
	C320.218048,260.741791 319.269043,265.487366 318.243347,270.614624 
	C317.112701,274.067627 316.058777,277.138977 314.942657,280.586853 
	C312.119537,284.040863 309.803101,282.975220 307.227509,279.746490 
	C305.205597,277.833130 303.627380,276.363251 301.911377,274.592163 
	C296.412201,266.423004 289.021942,263.400208 279.668274,264.975098 
	C278.700500,265.138062 277.681488,264.996735 276.686249,264.996735 
	C264.999756,264.996735 253.313278,264.996735 241.669281,264.996735 
	C245.229858,268.846191 248.555664,272.441803 252.021469,276.338684 
	C254.067596,278.439209 255.973724,280.238464 257.879852,282.037750 
	C259.682648,283.948212 261.485474,285.858643 263.584839,287.903320 
	C266.372986,290.634430 268.864532,293.231262 271.659546,295.973816 
	C274.403564,298.667358 276.844116,301.215210 279.582642,303.900757 
	C281.578827,306.439178 283.277100,308.839935 284.928925,311.602295 
	C283.653168,312.772430 282.423828,313.580933 281.041504,314.673523 
	C274.858917,317.292847 268.961761,320.087341 262.106079,320.633514 
	C253.225891,320.629730 244.562820,320.302307 235.467773,319.926147 
	C230.257675,318.008118 225.479523,316.138885 220.348511,314.218140 
	C216.602829,312.116272 213.209991,310.065918 209.465958,307.985840 
	C207.292587,306.361664 205.470398,304.767242 203.343597,303.027771 
	C200.602783,300.004425 198.166595,297.126099 195.425537,294.106079 
	C193.649185,291.740021 192.177689,289.515656 190.413467,287.128662 
	C188.714020,283.902252 187.307312,280.838470 185.684998,277.465851 
	C184.701508,274.988251 183.933609,272.819458 182.999527,270.324585 
	C182.213242,265.617249 181.593140,261.236053 180.903351,256.425476 
	C180.879822,252.300812 180.925964,248.605484 180.902496,244.453857 
	C181.229568,241.288193 181.626221,238.578812 182.072388,235.453247 
	C184.748627,228.614716 187.375336,222.192398 190.061127,215.403931 
	C194.654282,209.951218 198.934189,204.603241 203.807129,199.865158 
	C207.369171,196.401718 211.711334,193.740601 215.871002,190.421875 
	C240.844269,177.388153 265.227234,177.435577 289.389404,192.670395 
	C296.532959,199.776550 303.396210,206.764252 310.568726,213.894592 
	C313.588257,220.438446 316.298523,226.839645 319.086975,233.619507 
	C319.453796,236.388885 319.742371,238.779617 320.098297,241.584137 
M250.525909,183.000000 
	C220.110550,183.622696 194.008911,203.188187 185.427246,232.466049 
	C177.039047,261.083832 187.614441,291.113220 214.406967,308.578247 
	C236.970932,323.286835 266.218689,322.091583 283.739777,309.642151 
	C268.028961,293.934662 252.468658,278.377625 237.087830,263.000061 
	C254.767029,263.000061 272.917450,262.947113 291.066254,263.094604 
	C292.616516,263.107208 294.485901,264.113953 295.643982,265.238617 
	C300.987762,270.427948 306.132050,275.822723 311.739868,281.543762 
	C321.621307,260.484833 321.926056,239.825684 311.372498,220.176025 
	C298.775146,196.721115 278.381287,184.207870 250.525909,183.000000 
z"/>
<path fill="#4E5BD1" opacity="1.000000" stroke="none" 
	d="
M258.327637,282.026672 
	C255.973724,280.238464 254.067596,278.439209 252.440033,276.319244 
	C257.726654,275.724396 262.737000,275.187500 267.742249,275.231415 
	C277.808685,275.319702 287.871490,275.770355 297.938019,275.944763 
	C299.301910,275.968414 300.678436,275.261841 302.049133,274.893372 
	C303.627380,276.363251 305.205597,277.833130 306.916199,279.597839 
	C306.663391,280.189758 306.281952,280.741272 305.892578,280.746887 
	C295.423584,280.898346 284.952087,280.912842 274.484833,281.132660 
	C269.244507,281.242706 264.011688,281.709930 258.327637,282.026672 
z"/>
<path fill="#000000" opacity="1.000000" stroke="none" 
	d="
M250.998749,183.000000 
	C278.381287,184.207870 298.775146,196.721115 311.372498,220.176025 
	C321.926056,239.825684 321.621307,260.484833 311.739868,281.543762 
	C306.132050,275.822723 300.987762,270.427948 295.643982,265.238617 
	C294.485901,264.113953 292.616516,263.107208 291.066254,263.094604 
	C272.917450,262.947113 254.767029,263.000061 237.087830,263.000061 
	C252.468658,278.377625 268.028961,293.934662 283.739777,309.642151 
	C266.218689,322.091583 236.970932,323.286835 214.406967,308.578247 
	C187.614441,291.113220 177.039047,261.083832 185.427246,232.466049 
	C194.008911,203.188187 220.110550,183.622696 250.998749,183.000000 
z"/>
<path fill="#4D58D1" opacity="1.000000" stroke="none" 
	d="
M301.911377,274.592163 
	C300.678436,275.261841 299.301910,275.968414 297.938019,275.944763 
	C287.871490,275.770355 277.808685,275.319702 267.742249,275.231415 
	C262.737000,275.187500 257.726654,275.724396 252.300018,276.018005 
	C248.555664,272.441803 245.229858,268.846191 241.669281,264.996735 
	C253.313278,264.996735 264.999756,264.996735 276.686249,264.996735 
	C277.681488,264.996735 278.700500,265.138062 279.668274,264.975098 
	C289.021942,263.400208 296.412201,266.423004 301.911377,274.592163 
z"/>
</svg>